<mxfile host="app.diagrams.net" modified="2022-08-24T01:47:43.522Z" agent="5.0 (Macintosh; Intel Mac OS X 10_15_7) AppleWebKit/537.36 (KHTML, like Gecko) Chrome/104.0.0.0 Safari/537.36" etag="dMP7AsgXxr7Bvb5ibGuX" version="20.2.7" type="github">
  <diagram id="QcaPB6LnQUTitkFD0ahE" name="Page-1">
    <mxGraphModel dx="2156" dy="973" grid="1" gridSize="10" guides="1" tooltips="1" connect="1" arrows="1" fold="1" page="1" pageScale="1" pageWidth="1169" pageHeight="1654" math="0" shadow="0">
      <root>
        <mxCell id="0" />
        <mxCell id="1" parent="0" />
        <mxCell id="jw_hAJAAaO-pH3MRC7mS-18" value="" style="edgeStyle=orthogonalEdgeStyle;fontSize=12;html=1;endArrow=ERzeroToMany;startArrow=ERmandOne;rounded=0;exitX=1;exitY=0.25;exitDx=0;exitDy=0;verticalAlign=bottom;labelPosition=center;verticalLabelPosition=top;align=center;entryX=0;entryY=0.5;entryDx=0;entryDy=0;" parent="1" source="jw_hAJAAaO-pH3MRC7mS-67" target="jw_hAJAAaO-pH3MRC7mS-74" edge="1">
          <mxGeometry width="100" height="100" relative="1" as="geometry">
            <mxPoint x="230" y="255" as="sourcePoint" />
            <mxPoint x="290" y="411" as="targetPoint" />
          </mxGeometry>
        </mxCell>
        <mxCell id="jw_hAJAAaO-pH3MRC7mS-66" value="users" style="swimlane;childLayout=stackLayout;horizontal=1;startSize=30;horizontalStack=0;rounded=1;fontSize=14;fontStyle=1;strokeWidth=2;resizeParent=0;resizeLast=1;shadow=0;dashed=0;align=center;fillColor=#0050ef;fontColor=#ffffff;strokeColor=#001DBC;" parent="1" vertex="1">
          <mxGeometry x="50" y="130" width="160" height="120" as="geometry" />
        </mxCell>
        <mxCell id="jw_hAJAAaO-pH3MRC7mS-67" value="id&#xa;name&#xa;department_Id" style="align=left;strokeColor=none;fillColor=none;spacingLeft=4;fontSize=12;verticalAlign=top;resizable=0;rotatable=0;part=1;" parent="jw_hAJAAaO-pH3MRC7mS-66" vertex="1">
          <mxGeometry y="30" width="160" height="90" as="geometry" />
        </mxCell>
        <mxCell id="jw_hAJAAaO-pH3MRC7mS-69" value="departments" style="swimlane;childLayout=stackLayout;horizontal=1;startSize=30;horizontalStack=0;rounded=1;fontSize=14;fontStyle=0;strokeWidth=2;resizeParent=0;resizeLast=1;shadow=0;dashed=0;align=center;fillColor=#0050ef;fontColor=#ffffff;strokeColor=#001DBC;" parent="1" vertex="1">
          <mxGeometry x="50" y="306" width="160" height="94" as="geometry" />
        </mxCell>
        <mxCell id="jw_hAJAAaO-pH3MRC7mS-70" value="id&#xa;name&#xa;department_Id" style="align=left;strokeColor=none;fillColor=none;spacingLeft=4;fontSize=12;verticalAlign=top;resizable=0;rotatable=0;part=1;" parent="jw_hAJAAaO-pH3MRC7mS-69" vertex="1">
          <mxGeometry y="30" width="160" height="64" as="geometry" />
        </mxCell>
        <mxCell id="jw_hAJAAaO-pH3MRC7mS-72" value="" style="fontSize=12;html=1;endArrow=ERone;endFill=1;rounded=0;exitX=0.5;exitY=1;exitDx=0;exitDy=0;entryX=0.5;entryY=0;entryDx=0;entryDy=0;" parent="1" source="jw_hAJAAaO-pH3MRC7mS-67" target="jw_hAJAAaO-pH3MRC7mS-69" edge="1">
          <mxGeometry width="100" height="100" relative="1" as="geometry">
            <mxPoint x="360" y="360" as="sourcePoint" />
            <mxPoint x="460" y="260" as="targetPoint" />
          </mxGeometry>
        </mxCell>
        <mxCell id="jw_hAJAAaO-pH3MRC7mS-73" value="assigned_roles" style="swimlane;childLayout=stackLayout;horizontal=1;startSize=30;horizontalStack=0;rounded=1;fontSize=14;fontStyle=0;strokeWidth=2;resizeParent=0;resizeLast=1;shadow=0;dashed=0;align=center;fillColor=#0050ef;fontColor=#ffffff;strokeColor=#001DBC;" parent="1" vertex="1">
          <mxGeometry x="330" y="270" width="160" height="80" as="geometry" />
        </mxCell>
        <mxCell id="jw_hAJAAaO-pH3MRC7mS-74" value="id_user&#xa;id_rol" style="align=left;strokeColor=none;fillColor=none;spacingLeft=4;fontSize=12;verticalAlign=top;resizable=0;rotatable=0;part=1;" parent="jw_hAJAAaO-pH3MRC7mS-73" vertex="1">
          <mxGeometry y="30" width="160" height="50" as="geometry" />
        </mxCell>
        <mxCell id="jw_hAJAAaO-pH3MRC7mS-75" value="roles" style="swimlane;childLayout=stackLayout;horizontal=1;startSize=30;horizontalStack=0;rounded=1;fontSize=14;fontStyle=0;strokeWidth=2;resizeParent=0;resizeLast=1;shadow=0;dashed=0;align=center;fillColor=#0050ef;fontColor=#ffffff;strokeColor=#001DBC;" parent="1" vertex="1">
          <mxGeometry x="330" y="130" width="160" height="90" as="geometry" />
        </mxCell>
        <mxCell id="jw_hAJAAaO-pH3MRC7mS-76" value="id&#xa;name" style="align=left;strokeColor=none;fillColor=none;spacingLeft=4;fontSize=12;verticalAlign=top;resizable=0;rotatable=0;part=1;" parent="jw_hAJAAaO-pH3MRC7mS-75" vertex="1">
          <mxGeometry y="30" width="160" height="60" as="geometry" />
        </mxCell>
        <mxCell id="jw_hAJAAaO-pH3MRC7mS-88" style="edgeStyle=none;rounded=0;orthogonalLoop=1;jettySize=auto;html=1;exitX=0.75;exitY=1;exitDx=0;exitDy=0;fontSize=12;" parent="jw_hAJAAaO-pH3MRC7mS-75" source="jw_hAJAAaO-pH3MRC7mS-76" target="jw_hAJAAaO-pH3MRC7mS-76" edge="1">
          <mxGeometry relative="1" as="geometry" />
        </mxCell>
        <mxCell id="jw_hAJAAaO-pH3MRC7mS-77" value="" style="fontSize=12;html=1;endArrow=ERzeroToMany;startArrow=ERmandOne;rounded=0;verticalAlign=bottom;labelPosition=center;verticalLabelPosition=top;align=center;entryX=0.5;entryY=1;entryDx=0;entryDy=0;exitX=0.5;exitY=0;exitDx=0;exitDy=0;" parent="1" source="jw_hAJAAaO-pH3MRC7mS-73" target="jw_hAJAAaO-pH3MRC7mS-76" edge="1">
          <mxGeometry width="100" height="100" relative="1" as="geometry">
            <mxPoint x="340" y="310" as="sourcePoint" />
            <mxPoint x="270" y="391" as="targetPoint" />
          </mxGeometry>
        </mxCell>
        <mxCell id="jw_hAJAAaO-pH3MRC7mS-86" value="report" style="swimlane;childLayout=stackLayout;horizontal=1;startSize=30;horizontalStack=0;rounded=1;fontSize=14;fontStyle=0;strokeWidth=2;resizeParent=0;resizeLast=1;shadow=0;dashed=0;align=center;fillColor=#0050ef;fontColor=#ffffff;strokeColor=#001DBC;" parent="1" vertex="1">
          <mxGeometry x="460" y="420" width="160" height="150" as="geometry">
            <mxRectangle x="520" y="250" width="80" height="30" as="alternateBounds" />
          </mxGeometry>
        </mxCell>
        <mxCell id="jw_hAJAAaO-pH3MRC7mS-87" value="id&#xa;type&#xa;name&#xa;year_id" style="align=left;strokeColor=none;fillColor=none;spacingLeft=4;fontSize=12;verticalAlign=top;resizable=0;rotatable=0;part=1;" parent="jw_hAJAAaO-pH3MRC7mS-86" vertex="1">
          <mxGeometry y="30" width="160" height="120" as="geometry" />
        </mxCell>
        <mxCell id="jw_hAJAAaO-pH3MRC7mS-94" value="indicator" style="swimlane;childLayout=stackLayout;horizontal=1;startSize=30;horizontalStack=0;rounded=1;fontSize=14;fontStyle=0;strokeWidth=2;resizeParent=0;resizeLast=1;shadow=0;dashed=0;align=center;fillColor=#0050ef;fontColor=#ffffff;strokeColor=#001DBC;" parent="1" vertex="1">
          <mxGeometry x="210" y="420" width="180" height="220" as="geometry">
            <mxRectangle x="520" y="250" width="80" height="30" as="alternateBounds" />
          </mxGeometry>
        </mxCell>
        <mxCell id="jw_hAJAAaO-pH3MRC7mS-95" value="id&#xa;id_report&#xa;key&#xa;name&#xa;description&#xa;goal_value&#xa;comment&#xa;department_id&#xa;user_id&#xa;metric_id&#xa;end_metric&#xa;start_metric" style="align=left;strokeColor=none;fillColor=none;spacingLeft=4;fontSize=12;verticalAlign=top;resizable=0;rotatable=0;part=1;" parent="jw_hAJAAaO-pH3MRC7mS-94" vertex="1">
          <mxGeometry y="30" width="180" height="190" as="geometry" />
        </mxCell>
        <mxCell id="jw_hAJAAaO-pH3MRC7mS-96" value="" style="fontSize=12;html=1;endArrow=ERzeroToMany;startArrow=ERmandOne;rounded=0;verticalAlign=bottom;labelPosition=center;verticalLabelPosition=top;align=center;entryX=0;entryY=0.25;entryDx=0;entryDy=0;exitX=0.5;exitY=1;exitDx=0;exitDy=0;edgeStyle=orthogonalEdgeStyle;" parent="1" source="jw_hAJAAaO-pH3MRC7mS-70" target="jw_hAJAAaO-pH3MRC7mS-95" edge="1">
          <mxGeometry width="100" height="100" relative="1" as="geometry">
            <mxPoint x="210" y="525" as="sourcePoint" />
            <mxPoint x="140" y="410" as="targetPoint" />
          </mxGeometry>
        </mxCell>
        <mxCell id="jw_hAJAAaO-pH3MRC7mS-97" value="mir_indicator_values" style="swimlane;childLayout=stackLayout;horizontal=1;startSize=30;horizontalStack=0;rounded=1;fontSize=14;fontStyle=0;strokeWidth=2;resizeParent=0;resizeLast=1;shadow=0;dashed=0;align=center;fillColor=#0050ef;fontColor=#ffffff;strokeColor=#001DBC;" parent="1" vertex="1">
          <mxGeometry x="350" y="720" width="180" height="150" as="geometry">
            <mxRectangle x="520" y="250" width="80" height="30" as="alternateBounds" />
          </mxGeometry>
        </mxCell>
        <mxCell id="jw_hAJAAaO-pH3MRC7mS-98" value="id&#xa;indicador_id&#xa;period_id&#xa;value&#xa;argument" style="align=left;strokeColor=none;fillColor=none;spacingLeft=4;fontSize=12;verticalAlign=top;resizable=0;rotatable=0;part=1;" parent="jw_hAJAAaO-pH3MRC7mS-97" vertex="1">
          <mxGeometry y="30" width="180" height="120" as="geometry" />
        </mxCell>
        <mxCell id="jw_hAJAAaO-pH3MRC7mS-100" value="" style="fontSize=12;html=1;endArrow=ERzeroToMany;startArrow=ERmandOne;rounded=0;verticalAlign=bottom;labelPosition=center;verticalLabelPosition=top;align=center;entryX=1;entryY=0.25;entryDx=0;entryDy=0;exitX=0;exitY=0.25;exitDx=0;exitDy=0;edgeStyle=orthogonalEdgeStyle;" parent="1" source="jw_hAJAAaO-pH3MRC7mS-87" target="jw_hAJAAaO-pH3MRC7mS-95" edge="1">
          <mxGeometry width="100" height="100" relative="1" as="geometry">
            <mxPoint x="660" y="503" as="sourcePoint" />
            <mxPoint x="610" y="509.5" as="targetPoint" />
          </mxGeometry>
        </mxCell>
        <mxCell id="mCT9RTZwNJDIby6djry6-6" value="" style="fontSize=12;html=1;endArrow=ERzeroToMany;startArrow=ERmandOne;rounded=0;verticalAlign=bottom;labelPosition=center;verticalLabelPosition=top;align=center;exitX=0.5;exitY=1;exitDx=0;exitDy=0;edgeStyle=orthogonalEdgeStyle;entryX=0;entryY=0.5;entryDx=0;entryDy=0;" parent="1" source="jw_hAJAAaO-pH3MRC7mS-95" target="jw_hAJAAaO-pH3MRC7mS-98" edge="1">
          <mxGeometry width="100" height="100" relative="1" as="geometry">
            <mxPoint x="760" y="580" as="sourcePoint" />
            <mxPoint x="710" y="710" as="targetPoint" />
          </mxGeometry>
        </mxCell>
        <mxCell id="DPSCRcqHnvEarZe6nph0-1" value="projects" style="swimlane;childLayout=stackLayout;horizontal=1;startSize=30;horizontalStack=0;rounded=1;fontSize=14;fontStyle=0;strokeWidth=2;resizeParent=0;resizeLast=1;shadow=0;dashed=0;align=center;fillColor=#0050ef;fontColor=#ffffff;strokeColor=#001DBC;" parent="1" vertex="1">
          <mxGeometry x="760" y="580" width="160" height="120" as="geometry">
            <mxRectangle x="760" y="570" width="80" height="30" as="alternateBounds" />
          </mxGeometry>
        </mxCell>
        <mxCell id="DPSCRcqHnvEarZe6nph0-2" value="id&#xa;report_id&#xa;name&#xa;description&#xa;date" style="align=left;strokeColor=none;fillColor=none;spacingLeft=4;fontSize=12;verticalAlign=top;resizable=0;rotatable=0;part=1;" parent="DPSCRcqHnvEarZe6nph0-1" vertex="1">
          <mxGeometry y="30" width="160" height="90" as="geometry" />
        </mxCell>
        <mxCell id="DPSCRcqHnvEarZe6nph0-3" value="" style="fontSize=12;html=1;endArrow=ERzeroToMany;startArrow=ERmandOne;rounded=0;verticalAlign=bottom;labelPosition=center;verticalLabelPosition=top;align=center;exitX=0.75;exitY=1;exitDx=0;exitDy=0;edgeStyle=orthogonalEdgeStyle;entryX=0;entryY=0.25;entryDx=0;entryDy=0;" parent="1" source="jw_hAJAAaO-pH3MRC7mS-87" target="DPSCRcqHnvEarZe6nph0-2" edge="1">
          <mxGeometry width="100" height="100" relative="1" as="geometry">
            <mxPoint x="760" y="580" as="sourcePoint" />
            <mxPoint x="710" y="710" as="targetPoint" />
          </mxGeometry>
        </mxCell>
        <mxCell id="DPSCRcqHnvEarZe6nph0-4" value="goals" style="swimlane;childLayout=stackLayout;horizontal=1;startSize=30;horizontalStack=0;rounded=1;fontSize=14;fontStyle=0;strokeWidth=2;resizeParent=0;resizeLast=1;shadow=0;dashed=0;align=center;fillColor=#0050ef;fontColor=#ffffff;strokeColor=#001DBC;" parent="1" vertex="1">
          <mxGeometry x="1070" y="360" width="180" height="130" as="geometry">
            <mxRectangle x="1020" y="540" width="80" height="30" as="alternateBounds" />
          </mxGeometry>
        </mxCell>
        <mxCell id="DPSCRcqHnvEarZe6nph0-5" value="id&#xa;activity_id&#xa;meta&#xa;department_id&#xa;user_id" style="align=left;strokeColor=none;fillColor=none;spacingLeft=4;fontSize=12;verticalAlign=top;resizable=0;rotatable=0;part=1;" parent="DPSCRcqHnvEarZe6nph0-4" vertex="1">
          <mxGeometry y="30" width="180" height="100" as="geometry" />
        </mxCell>
        <mxCell id="DPSCRcqHnvEarZe6nph0-7" value="" style="fontSize=12;html=1;endArrow=ERzeroToMany;startArrow=ERmandOne;rounded=0;verticalAlign=bottom;labelPosition=center;verticalLabelPosition=top;align=center;exitX=0.5;exitY=0;exitDx=0;exitDy=0;edgeStyle=orthogonalEdgeStyle;entryX=0.5;entryY=0;entryDx=0;entryDy=0;" parent="1" source="2HrJFKe_g68oK4oj_s-X-19" target="DPSCRcqHnvEarZe6nph0-4" edge="1">
          <mxGeometry width="100" height="100" relative="1" as="geometry">
            <mxPoint x="800" y="580" as="sourcePoint" />
            <mxPoint x="1140" y="630" as="targetPoint" />
            <Array as="points">
              <mxPoint x="730" y="330" />
              <mxPoint x="1160" y="330" />
            </Array>
          </mxGeometry>
        </mxCell>
        <mxCell id="DPSCRcqHnvEarZe6nph0-11" value="" style="fontSize=12;html=1;endArrow=ERzeroToMany;startArrow=ERmandOne;rounded=0;verticalAlign=bottom;labelPosition=center;verticalLabelPosition=top;align=center;edgeStyle=orthogonalEdgeStyle;entryX=0;entryY=0.5;entryDx=0;entryDy=0;exitX=1;exitY=0.5;exitDx=0;exitDy=0;" parent="1" source="2HrJFKe_g68oK4oj_s-X-15" target="DPSCRcqHnvEarZe6nph0-14" edge="1">
          <mxGeometry width="100" height="100" relative="1" as="geometry">
            <mxPoint x="1370" y="810" as="sourcePoint" />
            <mxPoint x="760" y="460" as="targetPoint" />
          </mxGeometry>
        </mxCell>
        <mxCell id="DPSCRcqHnvEarZe6nph0-13" value="goals_values" style="swimlane;childLayout=stackLayout;horizontal=1;startSize=30;horizontalStack=0;rounded=1;fontSize=14;fontStyle=0;strokeWidth=2;resizeParent=0;resizeLast=1;shadow=0;dashed=0;align=center;fillColor=#0050ef;fontColor=#ffffff;strokeColor=#001DBC;" parent="1" vertex="1">
          <mxGeometry x="1169" y="725" width="170" height="180" as="geometry">
            <mxRectangle x="520" y="250" width="80" height="30" as="alternateBounds" />
          </mxGeometry>
        </mxCell>
        <mxCell id="DPSCRcqHnvEarZe6nph0-14" value="id&#xa;year_id&#xa;period_id&#xa;quantitative_goal_id&#xa;virtual_value&#xa;hybrid_value&#xa;regular_value&#xa;mobility_in&#xa;mobility_out&#xa;date" style="align=left;strokeColor=none;fillColor=none;spacingLeft=4;fontSize=12;verticalAlign=top;resizable=0;rotatable=0;part=1;" parent="DPSCRcqHnvEarZe6nph0-13" vertex="1">
          <mxGeometry y="30" width="170" height="150" as="geometry" />
        </mxCell>
        <mxCell id="DPSCRcqHnvEarZe6nph0-17" value="" style="fontSize=12;html=1;endArrow=ERzeroToMany;startArrow=ERmandOne;rounded=0;verticalAlign=bottom;labelPosition=center;verticalLabelPosition=top;align=center;edgeStyle=orthogonalEdgeStyle;entryX=0.5;entryY=0;entryDx=0;entryDy=0;exitX=0.5;exitY=1;exitDx=0;exitDy=0;" parent="1" source="GLhLC1HvzNRk2lQsnGv8-18" target="DPSCRcqHnvEarZe6nph0-13" edge="1">
          <mxGeometry width="100" height="100" relative="1" as="geometry">
            <mxPoint x="1492" y="680" as="sourcePoint" />
            <mxPoint x="1392" y="1010" as="targetPoint" />
            <Array as="points">
              <mxPoint x="1410" y="590" />
            </Array>
          </mxGeometry>
        </mxCell>
        <mxCell id="2HrJFKe_g68oK4oj_s-X-3" value="periods" style="swimlane;childLayout=stackLayout;horizontal=1;startSize=30;horizontalStack=0;rounded=1;fontSize=14;fontStyle=0;strokeWidth=2;resizeParent=0;resizeLast=1;shadow=0;dashed=0;align=center;fillColor=#0050ef;fontColor=#ffffff;strokeColor=#001DBC;" parent="1" vertex="1">
          <mxGeometry x="350" y="920" width="180" height="83" as="geometry">
            <mxRectangle x="520" y="250" width="80" height="30" as="alternateBounds" />
          </mxGeometry>
        </mxCell>
        <mxCell id="2HrJFKe_g68oK4oj_s-X-4" value="id&#xa;period_id" style="align=left;strokeColor=none;fillColor=none;spacingLeft=4;fontSize=12;verticalAlign=top;resizable=0;rotatable=0;part=1;" parent="2HrJFKe_g68oK4oj_s-X-3" vertex="1">
          <mxGeometry y="30" width="180" height="53" as="geometry" />
        </mxCell>
        <mxCell id="2HrJFKe_g68oK4oj_s-X-6" value="" style="fontSize=12;html=1;endArrow=ERzeroToMany;startArrow=ERmandOne;rounded=0;verticalAlign=bottom;labelPosition=center;verticalLabelPosition=top;align=center;exitX=0.5;exitY=1;exitDx=0;exitDy=0;edgeStyle=orthogonalEdgeStyle;entryX=0.5;entryY=0;entryDx=0;entryDy=0;" parent="1" source="jw_hAJAAaO-pH3MRC7mS-98" target="2HrJFKe_g68oK4oj_s-X-3" edge="1">
          <mxGeometry width="100" height="100" relative="1" as="geometry">
            <mxPoint x="310" y="580" as="sourcePoint" />
            <mxPoint x="440" y="840" as="targetPoint" />
          </mxGeometry>
        </mxCell>
        <mxCell id="2HrJFKe_g68oK4oj_s-X-8" value="report_assigned_years" style="swimlane;childLayout=stackLayout;horizontal=1;startSize=30;horizontalStack=0;rounded=1;fontSize=14;fontStyle=0;strokeWidth=2;resizeParent=0;resizeLast=1;shadow=0;dashed=0;align=center;fillColor=#0050ef;fontColor=#ffffff;strokeColor=#001DBC;" parent="1" vertex="1">
          <mxGeometry x="635" y="750" width="190" height="130" as="geometry">
            <mxRectangle x="520" y="250" width="80" height="30" as="alternateBounds" />
          </mxGeometry>
        </mxCell>
        <mxCell id="2HrJFKe_g68oK4oj_s-X-9" value="id&#xa;report_id&#xa;idAnioEscolar" style="align=left;strokeColor=none;fillColor=none;spacingLeft=4;fontSize=12;verticalAlign=top;resizable=0;rotatable=0;part=1;" parent="2HrJFKe_g68oK4oj_s-X-8" vertex="1">
          <mxGeometry y="30" width="190" height="100" as="geometry" />
        </mxCell>
        <mxCell id="2HrJFKe_g68oK4oj_s-X-12" value="" style="fontSize=12;html=1;endArrow=ERzeroToMany;startArrow=ERmandOne;rounded=0;verticalAlign=bottom;labelPosition=center;verticalLabelPosition=top;align=center;edgeStyle=orthogonalEdgeStyle;entryX=0.5;entryY=0;entryDx=0;entryDy=0;exitX=0.5;exitY=1;exitDx=0;exitDy=0;" parent="1" source="jw_hAJAAaO-pH3MRC7mS-87" target="2HrJFKe_g68oK4oj_s-X-8" edge="1">
          <mxGeometry width="100" height="100" relative="1" as="geometry">
            <mxPoint x="490" y="790" as="sourcePoint" />
            <mxPoint x="450" y="837" as="targetPoint" />
            <Array as="points">
              <mxPoint x="550" y="670" />
              <mxPoint x="730" y="670" />
            </Array>
          </mxGeometry>
        </mxCell>
        <mxCell id="2HrJFKe_g68oK4oj_s-X-14" value="anio_escolars" style="swimlane;childLayout=stackLayout;horizontal=1;startSize=30;horizontalStack=0;rounded=1;fontSize=14;fontStyle=0;strokeWidth=2;resizeParent=0;resizeLast=1;shadow=0;dashed=0;align=center;fillColor=#0050ef;fontColor=#ffffff;strokeColor=#001DBC;" parent="1" vertex="1">
          <mxGeometry x="920" y="750" width="160" height="130" as="geometry">
            <mxRectangle x="520" y="250" width="80" height="30" as="alternateBounds" />
          </mxGeometry>
        </mxCell>
        <mxCell id="2HrJFKe_g68oK4oj_s-X-15" value="idAnioEscolar&#xa;anio&#xa;fechaInicio&#xa;fechaTermino" style="align=left;strokeColor=none;fillColor=none;spacingLeft=4;fontSize=12;verticalAlign=top;resizable=0;rotatable=0;part=1;" parent="2HrJFKe_g68oK4oj_s-X-14" vertex="1">
          <mxGeometry y="30" width="160" height="100" as="geometry" />
        </mxCell>
        <mxCell id="2HrJFKe_g68oK4oj_s-X-17" value="" style="fontSize=12;html=1;endArrow=ERzeroToMany;startArrow=ERmandOne;rounded=0;verticalAlign=bottom;labelPosition=center;verticalLabelPosition=top;align=center;edgeStyle=orthogonalEdgeStyle;entryX=0;entryY=0.5;entryDx=0;entryDy=0;exitX=1;exitY=0.5;exitDx=0;exitDy=0;" parent="1" source="2HrJFKe_g68oK4oj_s-X-9" target="2HrJFKe_g68oK4oj_s-X-15" edge="1">
          <mxGeometry width="100" height="100" relative="1" as="geometry">
            <mxPoint x="770" y="840" as="sourcePoint" />
            <mxPoint x="790" y="857" as="targetPoint" />
            <Array as="points">
              <mxPoint x="890" y="830" />
              <mxPoint x="890" y="830" />
            </Array>
          </mxGeometry>
        </mxCell>
        <mxCell id="2HrJFKe_g68oK4oj_s-X-19" value="activities" style="swimlane;childLayout=stackLayout;horizontal=1;startSize=30;horizontalStack=0;rounded=1;fontSize=14;fontStyle=0;strokeWidth=2;resizeParent=0;resizeLast=1;shadow=0;dashed=0;align=center;fillColor=#0050ef;fontColor=#ffffff;strokeColor=#001DBC;" parent="1" vertex="1">
          <mxGeometry x="650" y="360" width="160" height="150" as="geometry">
            <mxRectangle x="520" y="250" width="80" height="30" as="alternateBounds" />
          </mxGeometry>
        </mxCell>
        <mxCell id="2HrJFKe_g68oK4oj_s-X-20" value="id&#xa;project_id&#xa;activity&#xa;start_date&#xa;end_date" style="align=left;strokeColor=none;fillColor=none;spacingLeft=4;fontSize=12;verticalAlign=top;resizable=0;rotatable=0;part=1;" parent="2HrJFKe_g68oK4oj_s-X-19" vertex="1">
          <mxGeometry y="30" width="160" height="120" as="geometry" />
        </mxCell>
        <mxCell id="2HrJFKe_g68oK4oj_s-X-23" value="" style="fontSize=12;html=1;endArrow=ERzeroToMany;startArrow=ERmandOne;rounded=0;verticalAlign=bottom;labelPosition=center;verticalLabelPosition=top;align=center;exitX=0.5;exitY=0;exitDx=0;exitDy=0;edgeStyle=orthogonalEdgeStyle;entryX=0.5;entryY=1;entryDx=0;entryDy=0;" parent="1" source="DPSCRcqHnvEarZe6nph0-1" target="2HrJFKe_g68oK4oj_s-X-20" edge="1">
          <mxGeometry width="100" height="100" relative="1" as="geometry">
            <mxPoint x="930" y="640" as="sourcePoint" />
            <mxPoint x="1030" y="640" as="targetPoint" />
          </mxGeometry>
        </mxCell>
        <mxCell id="2HrJFKe_g68oK4oj_s-X-25" value="" style="fontSize=12;html=1;endArrow=ERzeroToMany;startArrow=ERmandOne;rounded=0;verticalAlign=bottom;labelPosition=center;verticalLabelPosition=top;align=center;exitX=0.75;exitY=0;exitDx=0;exitDy=0;edgeStyle=orthogonalEdgeStyle;entryX=0.5;entryY=1;entryDx=0;entryDy=0;" parent="1" source="DPSCRcqHnvEarZe6nph0-1" target="2HrJFKe_g68oK4oj_s-X-27" edge="1">
          <mxGeometry width="100" height="100" relative="1" as="geometry">
            <mxPoint x="850" y="580" as="sourcePoint" />
            <mxPoint x="940" y="500" as="targetPoint" />
          </mxGeometry>
        </mxCell>
        <mxCell id="2HrJFKe_g68oK4oj_s-X-26" value="pdi_indicators" style="swimlane;childLayout=stackLayout;horizontal=1;startSize=30;horizontalStack=0;rounded=1;fontSize=14;fontStyle=0;strokeWidth=2;resizeParent=0;resizeLast=1;shadow=0;dashed=0;align=center;fillColor=#0050ef;fontColor=#ffffff;strokeColor=#001DBC;" parent="1" vertex="1">
          <mxGeometry x="850" y="360" width="160" height="150" as="geometry">
            <mxRectangle x="520" y="250" width="80" height="30" as="alternateBounds" />
          </mxGeometry>
        </mxCell>
        <mxCell id="2HrJFKe_g68oK4oj_s-X-27" value="id&#xa;project_id&#xa;activity&#xa;start_date&#xa;end_date" style="align=left;strokeColor=none;fillColor=none;spacingLeft=4;fontSize=12;verticalAlign=top;resizable=0;rotatable=0;part=1;" parent="2HrJFKe_g68oK4oj_s-X-26" vertex="1">
          <mxGeometry y="30" width="160" height="120" as="geometry" />
        </mxCell>
        <mxCell id="GLhLC1HvzNRk2lQsnGv8-8" value="forms" style="swimlane;childLayout=stackLayout;horizontal=1;startSize=30;horizontalStack=0;rounded=1;fontSize=14;fontStyle=0;strokeWidth=2;resizeParent=0;resizeLast=1;shadow=0;dashed=0;align=center;fillColor=#0050ef;fontColor=#ffffff;strokeColor=#001DBC;" vertex="1" parent="1">
          <mxGeometry x="1594" y="530" width="160" height="120" as="geometry">
            <mxRectangle x="520" y="250" width="80" height="30" as="alternateBounds" />
          </mxGeometry>
        </mxCell>
        <mxCell id="GLhLC1HvzNRk2lQsnGv8-9" value="id&#xa;id_question&#xa;id_user&#xa;answer&#xa;date" style="align=left;strokeColor=none;fillColor=none;spacingLeft=4;fontSize=12;verticalAlign=top;resizable=0;rotatable=0;part=1;" vertex="1" parent="GLhLC1HvzNRk2lQsnGv8-8">
          <mxGeometry y="30" width="160" height="90" as="geometry" />
        </mxCell>
        <mxCell id="GLhLC1HvzNRk2lQsnGv8-10" value="pdi_indicators" style="swimlane;childLayout=stackLayout;horizontal=1;startSize=30;horizontalStack=0;rounded=1;fontSize=14;fontStyle=0;strokeWidth=2;resizeParent=0;resizeLast=1;shadow=0;dashed=0;align=center;fillColor=#0050ef;fontColor=#ffffff;strokeColor=#001DBC;" vertex="1" parent="1">
          <mxGeometry x="980" y="580" width="160" height="120" as="geometry">
            <mxRectangle x="520" y="250" width="80" height="30" as="alternateBounds" />
          </mxGeometry>
        </mxCell>
        <mxCell id="GLhLC1HvzNRk2lQsnGv8-11" value="id&#xa;project_id&#xa;indicator" style="align=left;strokeColor=none;fillColor=none;spacingLeft=4;fontSize=12;verticalAlign=top;resizable=0;rotatable=0;part=1;" vertex="1" parent="GLhLC1HvzNRk2lQsnGv8-10">
          <mxGeometry y="30" width="160" height="90" as="geometry" />
        </mxCell>
        <mxCell id="GLhLC1HvzNRk2lQsnGv8-14" value="" style="fontSize=12;html=1;endArrow=ERzeroToMany;startArrow=ERmandOne;rounded=0;verticalAlign=bottom;labelPosition=center;verticalLabelPosition=top;align=center;edgeStyle=orthogonalEdgeStyle;exitX=1;exitY=0.5;exitDx=0;exitDy=0;entryX=0;entryY=0.5;entryDx=0;entryDy=0;" edge="1" parent="1" source="DPSCRcqHnvEarZe6nph0-2" target="GLhLC1HvzNRk2lQsnGv8-11">
          <mxGeometry width="100" height="100" relative="1" as="geometry">
            <mxPoint x="999.9999999999998" y="835" as="sourcePoint" />
            <mxPoint x="970" y="655" as="targetPoint" />
            <Array as="points">
              <mxPoint x="950" y="655" />
              <mxPoint x="950" y="655" />
            </Array>
          </mxGeometry>
        </mxCell>
        <mxCell id="GLhLC1HvzNRk2lQsnGv8-17" value="quantitative_goals" style="swimlane;childLayout=stackLayout;horizontal=1;startSize=30;horizontalStack=0;rounded=1;fontSize=14;fontStyle=0;strokeWidth=2;resizeParent=0;resizeLast=1;shadow=0;dashed=0;align=center;fillColor=#0050ef;fontColor=#ffffff;strokeColor=#001DBC;" vertex="1" parent="1">
          <mxGeometry x="1320" y="360" width="180" height="130" as="geometry">
            <mxRectangle x="1020" y="540" width="80" height="30" as="alternateBounds" />
          </mxGeometry>
        </mxCell>
        <mxCell id="GLhLC1HvzNRk2lQsnGv8-18" value="id&#xa;goal_id&#xa;goal_descritption&#xa;meta_sede&#xa;" style="align=left;strokeColor=none;fillColor=none;spacingLeft=4;fontSize=12;verticalAlign=top;resizable=0;rotatable=0;part=1;" vertex="1" parent="GLhLC1HvzNRk2lQsnGv8-17">
          <mxGeometry y="30" width="180" height="100" as="geometry" />
        </mxCell>
        <mxCell id="GLhLC1HvzNRk2lQsnGv8-20" value="" style="fontSize=12;html=1;endArrow=ERzeroToMany;startArrow=ERmandOne;rounded=0;verticalAlign=bottom;labelPosition=center;verticalLabelPosition=top;align=center;edgeStyle=orthogonalEdgeStyle;entryX=0;entryY=0.5;entryDx=0;entryDy=0;exitX=1;exitY=0.5;exitDx=0;exitDy=0;" edge="1" parent="1" source="DPSCRcqHnvEarZe6nph0-5" target="GLhLC1HvzNRk2lQsnGv8-18">
          <mxGeometry width="100" height="100" relative="1" as="geometry">
            <mxPoint x="1170" y="499.9999999999999" as="sourcePoint" />
            <mxPoint x="1170" y="550.0000000000001" as="targetPoint" />
            <Array as="points" />
          </mxGeometry>
        </mxCell>
        <mxCell id="GLhLC1HvzNRk2lQsnGv8-22" value="" style="fontSize=12;html=1;endArrow=ERzeroToMany;startArrow=ERmandOne;rounded=0;verticalAlign=bottom;labelPosition=center;verticalLabelPosition=top;align=center;entryX=0.5;entryY=0;entryDx=0;entryDy=0;exitX=0.75;exitY=0;exitDx=0;exitDy=0;edgeStyle=orthogonalEdgeStyle;" edge="1" parent="1" source="DPSCRcqHnvEarZe6nph0-4" target="jw_hAJAAaO-pH3MRC7mS-66">
          <mxGeometry width="100" height="100" relative="1" as="geometry">
            <mxPoint x="420" y="280" as="sourcePoint" />
            <mxPoint x="420" y="230" as="targetPoint" />
            <Array as="points">
              <mxPoint x="1205" y="70" />
              <mxPoint x="130" y="70" />
            </Array>
          </mxGeometry>
        </mxCell>
        <mxCell id="GLhLC1HvzNRk2lQsnGv8-24" value="basic_metrics" style="swimlane;childLayout=stackLayout;horizontal=1;startSize=30;horizontalStack=0;rounded=1;fontSize=14;fontStyle=0;strokeWidth=2;resizeParent=0;resizeLast=1;shadow=0;dashed=0;align=center;fillColor=#0050ef;fontColor=#ffffff;strokeColor=#001DBC;" vertex="1" parent="1">
          <mxGeometry x="30" y="660" width="180" height="90" as="geometry">
            <mxRectangle x="520" y="250" width="80" height="30" as="alternateBounds" />
          </mxGeometry>
        </mxCell>
        <mxCell id="GLhLC1HvzNRk2lQsnGv8-25" value="id&#xa;metric_name" style="align=left;strokeColor=none;fillColor=none;spacingLeft=4;fontSize=12;verticalAlign=top;resizable=0;rotatable=0;part=1;" vertex="1" parent="GLhLC1HvzNRk2lQsnGv8-24">
          <mxGeometry y="30" width="180" height="60" as="geometry" />
        </mxCell>
        <mxCell id="GLhLC1HvzNRk2lQsnGv8-26" value="" style="fontSize=12;html=1;endArrow=ERzeroToMany;startArrow=ERmandOne;rounded=0;verticalAlign=bottom;labelPosition=center;verticalLabelPosition=top;align=center;exitX=0.005;exitY=0.457;exitDx=0;exitDy=0;edgeStyle=orthogonalEdgeStyle;entryX=0.5;entryY=0;entryDx=0;entryDy=0;exitPerimeter=0;" edge="1" parent="1" source="jw_hAJAAaO-pH3MRC7mS-95" target="GLhLC1HvzNRk2lQsnGv8-24">
          <mxGeometry width="100" height="100" relative="1" as="geometry">
            <mxPoint x="310" y="650.0000000000002" as="sourcePoint" />
            <mxPoint x="360" y="819.9999999999998" as="targetPoint" />
          </mxGeometry>
        </mxCell>
        <mxCell id="GLhLC1HvzNRk2lQsnGv8-28" value="" style="edgeStyle=orthogonalEdgeStyle;fontSize=12;html=1;endArrow=ERzeroToMany;startArrow=ERmandOne;rounded=0;exitX=0.75;exitY=1;exitDx=0;exitDy=0;verticalAlign=bottom;labelPosition=center;verticalLabelPosition=top;align=center;entryX=0.5;entryY=0;entryDx=0;entryDy=0;" edge="1" parent="1" source="jw_hAJAAaO-pH3MRC7mS-67" target="jw_hAJAAaO-pH3MRC7mS-94">
          <mxGeometry width="100" height="100" relative="1" as="geometry">
            <mxPoint x="220" y="192.5" as="sourcePoint" />
            <mxPoint x="340" y="335" as="targetPoint" />
            <Array as="points">
              <mxPoint x="170" y="270" />
              <mxPoint x="230" y="270" />
              <mxPoint x="230" y="350" />
              <mxPoint x="300" y="350" />
            </Array>
          </mxGeometry>
        </mxCell>
      </root>
    </mxGraphModel>
  </diagram>
</mxfile>
